<svg width="78" height="78" viewBox="0 0 78 78" fill="none" xmlns="http://www.w3.org/2000/svg">
<circle cx="39" cy="39" r="24" fill="white"/>
<circle cx="39" cy="39" r="39" fill="white" fill-opacity="0.43"/>
<g clip-path="url(#clip0_196_205)">
<path d="M35.2052 29.6755C34.9476 29.6629 34.6913 29.7184 34.4622 29.8363H34.0154L34.2339 29.9819C34.0914 30.0925 33.9699 30.229 33.8762 30.3849C33.7396 30.6122 33.6671 30.8724 33.6666 31.1377V31.1386V46.8615V46.8624C33.6671 47.1277 33.7396 47.3878 33.8762 47.6152L34.3048 47.3576L33.8762 47.6152C34.0129 47.8426 34.2087 48.0286 34.4427 48.1536C34.6767 48.2785 34.9402 48.3376 35.2052 48.3246L35.1807 47.8252L35.2052 48.3246C35.4702 48.3116 35.7266 48.2269 35.9473 48.0797L47.7377 40.221C47.9389 40.0872 48.1039 39.9056 48.218 39.6926C48.3321 39.4796 48.3918 39.2417 48.3918 39C48.3918 38.7584 48.3321 38.5205 48.218 38.3075C48.1039 38.0944 47.9389 37.9129 47.7377 37.779L37.3194 30.8363H37.3201L35.9473 29.9204C35.7266 29.7731 35.4702 29.6885 35.2052 29.6755ZM39 62.6667C25.9289 62.6667 15.3333 52.0711 15.3333 39C15.3333 25.9289 25.9289 15.3334 39 15.3334C52.0711 15.3334 62.6666 25.9289 62.6666 39C62.6666 52.0711 52.0711 62.6667 39 62.6667Z" fill="#57007B" stroke="white"/>
</g>
<defs>
<clipPath id="clip0_196_205">
<rect width="58" height="58" fill="white" transform="translate(10 10)"/>
</clipPath>
</defs>
</svg>
