<svg width="122" height="25" viewBox="0 0 122 25" fill="none" xmlns="http://www.w3.org/2000/svg">
<path d="M1.27841 18V6.36364H5.42614C6.32765 6.36364 7.07576 6.51894 7.67045 6.82955C8.26894 7.14015 8.71591 7.57008 9.01136 8.11932C9.30682 8.66477 9.45455 9.29545 9.45455 10.0114C9.45455 10.7235 9.30492 11.3504 9.00568 11.892C8.71023 12.4299 8.26326 12.8485 7.66477 13.1477C7.07008 13.447 6.32197 13.5966 5.42045 13.5966H2.27841V12.0852H5.26136C5.82955 12.0852 6.29167 12.0038 6.64773 11.8409C7.00758 11.678 7.27083 11.4413 7.4375 11.1307C7.60417 10.8201 7.6875 10.447 7.6875 10.0114C7.6875 9.57197 7.60227 9.19129 7.43182 8.86932C7.26515 8.54735 7.00189 8.30114 6.64205 8.13068C6.28598 7.95644 5.81818 7.86932 5.23864 7.86932H3.03409V18H1.27841ZM7.02273 12.75L9.89773 18H7.89773L5.07955 12.75H7.02273ZM15.1065 18.1761C14.2467 18.1761 13.5062 17.9924 12.8849 17.625C12.2675 17.2538 11.7902 16.733 11.4531 16.0625C11.1198 15.3883 10.9531 14.5985 10.9531 13.6932C10.9531 12.7992 11.1198 12.0114 11.4531 11.3295C11.7902 10.6477 12.2599 10.1155 12.8622 9.73295C13.4683 9.35038 14.1766 9.15909 14.9872 9.15909C15.4796 9.15909 15.9569 9.24053 16.419 9.40341C16.8812 9.56629 17.2959 9.82197 17.6634 10.1705C18.0308 10.5189 18.3205 10.9716 18.5327 11.5284C18.7448 12.0814 18.8509 12.7538 18.8509 13.5455V14.1477H11.9134V12.875H17.1861C17.1861 12.428 17.0952 12.0322 16.9134 11.6875C16.7315 11.339 16.4759 11.0644 16.1463 10.8636C15.8205 10.6629 15.438 10.5625 14.9986 10.5625C14.5213 10.5625 14.1046 10.6799 13.7486 10.9148C13.3963 11.1458 13.1236 11.4489 12.9304 11.8239C12.741 12.1951 12.6463 12.5985 12.6463 13.0341V14.0284C12.6463 14.6117 12.7486 15.108 12.9531 15.517C13.1615 15.9261 13.4512 16.2386 13.8224 16.4545C14.1937 16.6667 14.6274 16.7727 15.1236 16.7727C15.4455 16.7727 15.7391 16.7273 16.0043 16.6364C16.2694 16.5417 16.4986 16.4015 16.6918 16.2159C16.8849 16.0303 17.0327 15.8011 17.1349 15.5284L18.7429 15.8182C18.6141 16.2917 18.383 16.7064 18.0497 17.0625C17.7202 17.4148 17.3054 17.6894 16.8054 17.8864C16.3092 18.0795 15.7429 18.1761 15.1065 18.1761ZM23.2756 18.1932C22.7225 18.1932 22.2225 18.0909 21.7756 17.8864C21.3286 17.678 20.9744 17.3769 20.7131 16.983C20.4555 16.589 20.3267 16.1061 20.3267 15.5341C20.3267 15.0417 20.4214 14.6364 20.6108 14.3182C20.8002 14 21.0559 13.7481 21.3778 13.5625C21.6998 13.3769 22.0597 13.2367 22.4574 13.142C22.8551 13.0473 23.2604 12.9754 23.6733 12.9261C24.196 12.8655 24.6203 12.8163 24.946 12.7784C25.2718 12.7367 25.5085 12.6705 25.6562 12.5795C25.804 12.4886 25.8778 12.3409 25.8778 12.1364V12.0966C25.8778 11.6004 25.7377 11.2159 25.4574 10.9432C25.1809 10.6705 24.768 10.5341 24.2188 10.5341C23.6468 10.5341 23.196 10.661 22.8665 10.9148C22.5407 11.1648 22.3153 11.4432 22.1903 11.75L20.5938 11.3864C20.7831 10.8561 21.0597 10.428 21.4233 10.1023C21.7907 9.77273 22.2131 9.53409 22.6903 9.38636C23.1676 9.23485 23.6695 9.15909 24.196 9.15909C24.5445 9.15909 24.9138 9.20076 25.304 9.28409C25.6979 9.36364 26.0653 9.51136 26.4062 9.72727C26.7509 9.94318 27.0331 10.2519 27.2528 10.6534C27.4725 11.0511 27.5824 11.5682 27.5824 12.2045V18H25.9233V16.8068H25.8551C25.7453 17.0265 25.5805 17.2424 25.3608 17.4545C25.1411 17.6667 24.8589 17.8428 24.5142 17.983C24.1695 18.1231 23.7566 18.1932 23.2756 18.1932ZM23.6449 16.8295C24.1146 16.8295 24.5161 16.7367 24.8494 16.5511C25.1866 16.3655 25.4422 16.1231 25.6165 15.8239C25.7945 15.5208 25.8835 15.197 25.8835 14.8523V13.7273C25.8229 13.7879 25.7055 13.8447 25.5312 13.8977C25.3608 13.947 25.1657 13.9905 24.946 14.0284C24.7263 14.0625 24.5123 14.0947 24.304 14.125C24.0956 14.1515 23.9214 14.1742 23.7812 14.1932C23.4517 14.2348 23.1506 14.3049 22.8778 14.4034C22.6089 14.5019 22.393 14.6439 22.2301 14.8295C22.071 15.0114 21.9915 15.2538 21.9915 15.5568C21.9915 15.9773 22.1468 16.2955 22.4574 16.5114C22.768 16.7235 23.1638 16.8295 23.6449 16.8295ZM33.1122 18.1705C32.4077 18.1705 31.7789 17.9905 31.2259 17.6307C30.6766 17.267 30.2448 16.75 29.9304 16.0795C29.6198 15.4053 29.4645 14.5966 29.4645 13.6534C29.4645 12.7102 29.6217 11.9034 29.9361 11.233C30.2543 10.5625 30.6899 10.0492 31.2429 9.69318C31.7959 9.33712 32.4228 9.15909 33.1236 9.15909C33.6652 9.15909 34.1009 9.25 34.4304 9.43182C34.7637 9.60985 35.0213 9.81818 35.2031 10.0568C35.3887 10.2955 35.5327 10.5057 35.6349 10.6875H35.7372V6.36364H37.4361V18H35.777V16.642H35.6349C35.5327 16.8277 35.3849 17.0398 35.1918 17.2784C35.0024 17.517 34.741 17.7254 34.4077 17.9034C34.0743 18.0814 33.6425 18.1705 33.1122 18.1705ZM33.4872 16.7216C33.9759 16.7216 34.3887 16.5928 34.7259 16.3352C35.0668 16.0739 35.3243 15.7121 35.4986 15.25C35.6766 14.7879 35.7656 14.25 35.7656 13.6364C35.7656 13.0303 35.6785 12.5 35.5043 12.0455C35.33 11.5909 35.0743 11.2367 34.7372 10.983C34.4001 10.7292 33.9834 10.6023 33.4872 10.6023C32.9759 10.6023 32.5497 10.7348 32.2088 11C31.8679 11.2652 31.6103 11.6269 31.4361 12.0852C31.2656 12.5436 31.1804 13.0606 31.1804 13.6364C31.1804 14.2197 31.2675 14.7443 31.4418 15.2102C31.616 15.6761 31.8736 16.0455 32.2145 16.3182C32.5592 16.5871 32.9834 16.7216 33.4872 16.7216ZM44.2315 6.36364H46.3622L50.0668 15.4091H50.2031L53.9077 6.36364H56.0384V18H54.3679V9.57955H54.2599L50.8281 17.983H49.4418L46.0099 9.57386H45.902V18H44.2315V6.36364ZM62.1307 18.1761C61.3125 18.1761 60.5985 17.9886 59.9886 17.6136C59.3788 17.2386 58.9053 16.714 58.5682 16.0398C58.2311 15.3655 58.0625 14.5777 58.0625 13.6761C58.0625 12.7708 58.2311 11.9792 58.5682 11.3011C58.9053 10.6231 59.3788 10.0966 59.9886 9.72159C60.5985 9.34659 61.3125 9.15909 62.1307 9.15909C62.9489 9.15909 63.6629 9.34659 64.2727 9.72159C64.8826 10.0966 65.3561 10.6231 65.6932 11.3011C66.0303 11.9792 66.1989 12.7708 66.1989 13.6761C66.1989 14.5777 66.0303 15.3655 65.6932 16.0398C65.3561 16.714 64.8826 17.2386 64.2727 17.6136C63.6629 17.9886 62.9489 18.1761 62.1307 18.1761ZM62.1364 16.75C62.6667 16.75 63.1061 16.6098 63.4545 16.3295C63.803 16.0492 64.0606 15.6761 64.2273 15.2102C64.3977 14.7443 64.483 14.2311 64.483 13.6705C64.483 13.1136 64.3977 12.6023 64.2273 12.1364C64.0606 11.6667 63.803 11.2898 63.4545 11.0057C63.1061 10.7216 62.6667 10.5795 62.1364 10.5795C61.6023 10.5795 61.1591 10.7216 60.8068 11.0057C60.4583 11.2898 60.1989 11.6667 60.0284 12.1364C59.8617 12.6023 59.7784 13.1136 59.7784 13.6705C59.7784 14.2311 59.8617 14.7443 60.0284 15.2102C60.1989 15.6761 60.4583 16.0492 60.8068 16.3295C61.1591 16.6098 61.6023 16.75 62.1364 16.75ZM68.0952 18V9.27273H69.7372V10.6591H69.8281C69.9872 10.1894 70.2675 9.82008 70.669 9.55114C71.0743 9.27841 71.5327 9.14205 72.044 9.14205C72.1501 9.14205 72.2751 9.14583 72.419 9.15341C72.5668 9.16098 72.6823 9.17045 72.7656 9.18182V10.8068C72.6974 10.7879 72.5762 10.767 72.402 10.7443C72.2277 10.7178 72.0535 10.7045 71.8793 10.7045C71.4777 10.7045 71.1198 10.7898 70.8054 10.9602C70.4948 11.1269 70.2486 11.3598 70.0668 11.6591C69.8849 11.9545 69.794 12.2917 69.794 12.6705V18H68.0952ZM77.6847 18.1761C76.8248 18.1761 76.0843 17.9924 75.4631 17.625C74.8456 17.2538 74.3684 16.733 74.0312 16.0625C73.6979 15.3883 73.5312 14.5985 73.5312 13.6932C73.5312 12.7992 73.6979 12.0114 74.0312 11.3295C74.3684 10.6477 74.8381 10.1155 75.4403 9.73295C76.0464 9.35038 76.7547 9.15909 77.5653 9.15909C78.0578 9.15909 78.535 9.24053 78.9972 9.40341C79.4593 9.56629 79.8741 9.82197 80.2415 10.1705C80.6089 10.5189 80.8987 10.9716 81.1108 11.5284C81.3229 12.0814 81.429 12.7538 81.429 13.5455V14.1477H74.4915V12.875H79.7642C79.7642 12.428 79.6733 12.0322 79.4915 11.6875C79.3097 11.339 79.054 11.0644 78.7244 10.8636C78.3987 10.6629 78.0161 10.5625 77.5767 10.5625C77.0994 10.5625 76.6828 10.6799 76.3267 10.9148C75.9744 11.1458 75.7017 11.4489 75.5085 11.8239C75.3191 12.1951 75.2244 12.5985 75.2244 13.0341V14.0284C75.2244 14.6117 75.3267 15.108 75.5312 15.517C75.7396 15.9261 76.0294 16.2386 76.4006 16.4545C76.7718 16.6667 77.2055 16.7727 77.7017 16.7727C78.0237 16.7727 78.3172 16.7273 78.5824 16.6364C78.8475 16.5417 79.0767 16.4015 79.2699 16.2159C79.4631 16.0303 79.6108 15.8011 79.7131 15.5284L81.321 15.8182C81.1922 16.2917 80.9612 16.7064 80.6278 17.0625C80.2983 17.4148 79.8835 17.6894 79.3835 17.8864C78.8873 18.0795 78.321 18.1761 77.6847 18.1761Z" fill="#57007B"/>
<g clip-path="url(#clip0_226_570)">
<path d="M114.172 11.4997L108.808 6.13568L110.222 4.72168L118 12.4997L110.222 20.2777L108.808 18.8637L114.172 13.4997H102V11.4997H114.172Z" fill="#57007B"/>
</g>
<defs>
<clipPath id="clip0_226_570">
<rect width="24" height="24" fill="white" transform="translate(98 0.5)"/>
</clipPath>
</defs>
</svg>
